solid OpenSCAD_Model
  facet normal 1 -0 0
    outer loop
      vertex 33.5 -33.5 20.08
      vertex 33.5 33.5 3.8147e-08
      vertex 33.5 33.5 20.08
    endloop
  endfacet
  facet normal 1 0 0
    outer loop
      vertex 33.5 33.5 3.8147e-08
      vertex 33.5 -33.5 20.08
      vertex 33.5 -33.5 3.8147e-08
    endloop
  endfacet
  facet normal 0 0 -1
    outer loop
      vertex 33.5 -33.5 3.8147e-08
      vertex 30.5 -30.5 3.8147e-08
      vertex 33.5 33.5 3.8147e-08
    endloop
  endfacet
  facet normal 0 0 -1
    outer loop
      vertex 33.5 -33.5 3.8147e-08
      vertex -30.5 -30.5 3.8147e-08
      vertex 30.5 -30.5 3.8147e-08
    endloop
  endfacet
  facet normal -0 0 -1
    outer loop
      vertex -30.5 -30.5 3.8147e-08
      vertex -33.5 -33.5 3.8147e-08
      vertex -30.5 30.5 3.8147e-08
    endloop
  endfacet
  facet normal 0 0 -1
    outer loop
      vertex -33.5 -33.5 3.8147e-08
      vertex -30.5 -30.5 3.8147e-08
      vertex 33.5 -33.5 3.8147e-08
    endloop
  endfacet
  facet normal 0 0 -1
    outer loop
      vertex 30.5 30.5 3.8147e-08
      vertex 33.5 33.5 3.8147e-08
      vertex 30.5 -30.5 3.8147e-08
    endloop
  endfacet
  facet normal 0 0 -1
    outer loop
      vertex -30.5 30.5 3.8147e-08
      vertex 33.5 33.5 3.8147e-08
      vertex 30.5 30.5 3.8147e-08
    endloop
  endfacet
  facet normal 0 0 -1
    outer loop
      vertex -30.5 30.5 3.8147e-08
      vertex -33.5 33.5 3.8147e-08
      vertex 33.5 33.5 3.8147e-08
    endloop
  endfacet
  facet normal 0 0 -1
    outer loop
      vertex -33.5 33.5 3.8147e-08
      vertex -30.5 30.5 3.8147e-08
      vertex -33.5 -33.5 3.8147e-08
    endloop
  endfacet
  facet normal -1 0 0
    outer loop
      vertex -33.5 -33.5 3.8147e-08
      vertex -33.5 33.5 20.08
      vertex -33.5 33.5 3.8147e-08
    endloop
  endfacet
  facet normal -1 -0 0
    outer loop
      vertex -33.5 33.5 20.08
      vertex -33.5 -33.5 3.8147e-08
      vertex -33.5 -33.5 20.08
    endloop
  endfacet
  facet normal 0 1 -0
    outer loop
      vertex 33.5 33.5 3.8147e-08
      vertex -33.5 33.5 20.08
      vertex 33.5 33.5 20.08
    endloop
  endfacet
  facet normal 0 1 0
    outer loop
      vertex -33.5 33.5 20.08
      vertex 33.5 33.5 3.8147e-08
      vertex -33.5 33.5 3.8147e-08
    endloop
  endfacet
  facet normal 0 -1 0
    outer loop
      vertex -30.5 30.5 3.8147e-08
      vertex 30.5 30.5 17.08
      vertex -30.5 30.5 17.08
    endloop
  endfacet
  facet normal 0 -1 -0
    outer loop
      vertex 30.5 30.5 17.08
      vertex -30.5 30.5 3.8147e-08
      vertex 30.5 30.5 3.8147e-08
    endloop
  endfacet
  facet normal 1 -0 0
    outer loop
      vertex -30.5 -30.5 17.08
      vertex -30.5 30.5 3.8147e-08
      vertex -30.5 30.5 17.08
    endloop
  endfacet
  facet normal 1 0 0
    outer loop
      vertex -30.5 30.5 3.8147e-08
      vertex -30.5 -30.5 17.08
      vertex -30.5 -30.5 3.8147e-08
    endloop
  endfacet
  facet normal 0 -1 0
    outer loop
      vertex -33.5 -33.5 3.8147e-08
      vertex 33.5 -33.5 20.08
      vertex -33.5 -33.5 20.08
    endloop
  endfacet
  facet normal 0 -1 -0
    outer loop
      vertex 33.5 -33.5 20.08
      vertex -33.5 -33.5 3.8147e-08
      vertex 33.5 -33.5 3.8147e-08
    endloop
  endfacet
  facet normal 0 1 -0
    outer loop
      vertex 30.5 -30.5 3.8147e-08
      vertex -30.5 -30.5 17.08
      vertex 30.5 -30.5 17.08
    endloop
  endfacet
  facet normal 0 1 0
    outer loop
      vertex -30.5 -30.5 17.08
      vertex 30.5 -30.5 3.8147e-08
      vertex -30.5 -30.5 3.8147e-08
    endloop
  endfacet
  facet normal -1 0 0
    outer loop
      vertex 30.5 -30.5 3.8147e-08
      vertex 30.5 30.5 17.08
      vertex 30.5 30.5 3.8147e-08
    endloop
  endfacet
  facet normal -1 -0 0
    outer loop
      vertex 30.5 30.5 17.08
      vertex 30.5 -30.5 3.8147e-08
      vertex 30.5 -30.5 17.08
    endloop
  endfacet
  facet normal -0 0 1
    outer loop
      vertex -28 -7 20.08
      vertex -14 -14 20.08
      vertex -14 -7 20.08
    endloop
  endfacet
  facet normal 0 0 1
    outer loop
      vertex -14 -14 20.08
      vertex -28 -7 20.08
      vertex -28 -14 20.08
    endloop
  endfacet
  facet normal -0 0 1
    outer loop
      vertex -28 14 20.08
      vertex -14 7 20.08
      vertex -14 14 20.08
    endloop
  endfacet
  facet normal 0 0 1
    outer loop
      vertex -14 7 20.08
      vertex -28 14 20.08
      vertex -28 7 20.08
    endloop
  endfacet
  facet normal -0 0 1
    outer loop
      vertex -7 -7 20.08
      vertex 7 -14 20.08
      vertex 7 -7 20.08
    endloop
  endfacet
  facet normal 0 0 1
    outer loop
      vertex 7 -14 20.08
      vertex -7 -7 20.08
      vertex -7 -14 20.08
    endloop
  endfacet
  facet normal -0 0 1
    outer loop
      vertex -7 14 20.08
      vertex 7 7 20.08
      vertex 7 14 20.08
    endloop
  endfacet
  facet normal 0 0 1
    outer loop
      vertex 7 7 20.08
      vertex -7 14 20.08
      vertex -7 7 20.08
    endloop
  endfacet
  facet normal -0 0 1
    outer loop
      vertex 14 -7 20.08
      vertex 28 -14 20.08
      vertex 28 -7 20.08
    endloop
  endfacet
  facet normal 0 0 1
    outer loop
      vertex 28 -14 20.08
      vertex 14 -7 20.08
      vertex 14 -14 20.08
    endloop
  endfacet
  facet normal -0 0 1
    outer loop
      vertex 14 14 20.08
      vertex 28 7 20.08
      vertex 28 14 20.08
    endloop
  endfacet
  facet normal 0 0 1
    outer loop
      vertex 28 7 20.08
      vertex 14 14 20.08
      vertex 14 7 20.08
    endloop
  endfacet
  facet normal 0 0 1
    outer loop
      vertex 28 14 20.08
      vertex 33.5 33.5 20.08
      vertex 28 28 20.08
    endloop
  endfacet
  facet normal 0 0 1
    outer loop
      vertex 33.5 33.5 20.08
      vertex 14 28 20.08
      vertex 28 28 20.08
    endloop
  endfacet
  facet normal 0 0 1
    outer loop
      vertex 7 14 20.08
      vertex 14 14 20.08
      vertex 14 28 20.08
    endloop
  endfacet
  facet normal 0 0 1
    outer loop
      vertex 14 14 20.08
      vertex 7 14 20.08
      vertex 14 7 20.08
    endloop
  endfacet
  facet normal 0 0 1
    outer loop
      vertex 14 7 20.08
      vertex 7 7 20.08
      vertex 14 -7 20.08
    endloop
  endfacet
  facet normal 0 0 1
    outer loop
      vertex 7 -7 20.08
      vertex 14 -7 20.08
      vertex 7 7 20.08
    endloop
  endfacet
  facet normal 0 0 1
    outer loop
      vertex 7 14 20.08
      vertex 14 28 20.08
      vertex 7 28 20.08
    endloop
  endfacet
  facet normal 0 0 1
    outer loop
      vertex 33.5 33.5 20.08
      vertex 7 28 20.08
      vertex 14 28 20.08
    endloop
  endfacet
  facet normal 0 0 1
    outer loop
      vertex 33.5 33.5 20.08
      vertex -7 28 20.08
      vertex 7 28 20.08
    endloop
  endfacet
  facet normal 0 0 1
    outer loop
      vertex -14 14 20.08
      vertex -7 14 20.08
      vertex -7 28 20.08
    endloop
  endfacet
  facet normal 0 0 1
    outer loop
      vertex -7 14 20.08
      vertex -14 14 20.08
      vertex -7 7 20.08
    endloop
  endfacet
  facet normal 0 0 1
    outer loop
      vertex -7 7 20.08
      vertex -14 7 20.08
      vertex -7 -7 20.08
    endloop
  endfacet
  facet normal 0 0 1
    outer loop
      vertex -14 -7 20.08
      vertex -7 -7 20.08
      vertex -14 7 20.08
    endloop
  endfacet
  facet normal 0 0 1
    outer loop
      vertex -14 14 20.08
      vertex -7 28 20.08
      vertex -14 28 20.08
    endloop
  endfacet
  facet normal -0 0 1
    outer loop
      vertex -33.5 33.5 20.08
      vertex -7 28 20.08
      vertex 33.5 33.5 20.08
    endloop
  endfacet
  facet normal 0 0 1
    outer loop
      vertex -7 28 20.08
      vertex -33.5 33.5 20.08
      vertex -14 28 20.08
    endloop
  endfacet
  facet normal 0 0 1
    outer loop
      vertex -33.5 33.5 20.08
      vertex -28 14 20.08
      vertex -28 28 20.08
    endloop
  endfacet
  facet normal 0 0 1
    outer loop
      vertex -28 14 20.08
      vertex -33.5 33.5 20.08
      vertex -28 7 20.08
    endloop
  endfacet
  facet normal 0 0 1
    outer loop
      vertex -28 7 20.08
      vertex -33.5 33.5 20.08
      vertex -28 -7 20.08
    endloop
  endfacet
  facet normal 0 0 1
    outer loop
      vertex -33.5 -33.5 20.08
      vertex -28 -7 20.08
      vertex -33.5 33.5 20.08
    endloop
  endfacet
  facet normal 0 0 1
    outer loop
      vertex -28 -7 20.08
      vertex -33.5 -33.5 20.08
      vertex -28 -14 20.08
    endloop
  endfacet
  facet normal 0 0 1
    outer loop
      vertex -14 28 20.08
      vertex -33.5 33.5 20.08
      vertex -28 28 20.08
    endloop
  endfacet
  facet normal 0 0 1
    outer loop
      vertex 28 7 20.08
      vertex 33.5 33.5 20.08
      vertex 28 14 20.08
    endloop
  endfacet
  facet normal 0 0 1
    outer loop
      vertex 33.5 33.5 20.08
      vertex 28 7 20.08
      vertex 33.5 -33.5 20.08
    endloop
  endfacet
  facet normal -0 0 1
    outer loop
      vertex 28 -7 20.08
      vertex 33.5 -33.5 20.08
      vertex 28 7 20.08
    endloop
  endfacet
  facet normal -0 0 1
    outer loop
      vertex 28 -14 20.08
      vertex 33.5 -33.5 20.08
      vertex 28 -7 20.08
    endloop
  endfacet
  facet normal -0 0 1
    outer loop
      vertex 28 -28 20.08
      vertex 33.5 -33.5 20.08
      vertex 28 -14 20.08
    endloop
  endfacet
  facet normal -0 0 1
    outer loop
      vertex 14 -28 20.08
      vertex 33.5 -33.5 20.08
      vertex 28 -28 20.08
    endloop
  endfacet
  facet normal 0 0 1
    outer loop
      vertex 14 7 20.08
      vertex 7 14 20.08
      vertex 7 7 20.08
    endloop
  endfacet
  facet normal 0 0 1
    outer loop
      vertex 14 -7 20.08
      vertex 7 -7 20.08
      vertex 14 -14 20.08
    endloop
  endfacet
  facet normal 0 0 1
    outer loop
      vertex 7 -14 20.08
      vertex 14 -14 20.08
      vertex 7 -7 20.08
    endloop
  endfacet
  facet normal 0 0 1
    outer loop
      vertex 14 -14 20.08
      vertex 7 -14 20.08
      vertex 14 -28 20.08
    endloop
  endfacet
  facet normal 0 0 1
    outer loop
      vertex 7 -28 20.08
      vertex 14 -28 20.08
      vertex 7 -14 20.08
    endloop
  endfacet
  facet normal -0 0 1
    outer loop
      vertex 7 -28 20.08
      vertex 33.5 -33.5 20.08
      vertex 14 -28 20.08
    endloop
  endfacet
  facet normal -0 0 1
    outer loop
      vertex -7 -28 20.08
      vertex 33.5 -33.5 20.08
      vertex 7 -28 20.08
    endloop
  endfacet
  facet normal 0 0 1
    outer loop
      vertex -7 7 20.08
      vertex -14 14 20.08
      vertex -14 7 20.08
    endloop
  endfacet
  facet normal 0 0 1
    outer loop
      vertex -7 -7 20.08
      vertex -14 -7 20.08
      vertex -7 -14 20.08
    endloop
  endfacet
  facet normal 0 0 1
    outer loop
      vertex -14 -14 20.08
      vertex -7 -14 20.08
      vertex -14 -7 20.08
    endloop
  endfacet
  facet normal 0 0 1
    outer loop
      vertex -7 -14 20.08
      vertex -14 -14 20.08
      vertex -7 -28 20.08
    endloop
  endfacet
  facet normal 0 0 1
    outer loop
      vertex -14 -28 20.08
      vertex -7 -28 20.08
      vertex -14 -14 20.08
    endloop
  endfacet
  facet normal 0 0 1
    outer loop
      vertex -33.5 -33.5 20.08
      vertex -7 -28 20.08
      vertex -14 -28 20.08
    endloop
  endfacet
  facet normal 0 0 1
    outer loop
      vertex -33.5 -33.5 20.08
      vertex -14 -28 20.08
      vertex -28 -28 20.08
    endloop
  endfacet
  facet normal 0 0 1
    outer loop
      vertex -7 -28 20.08
      vertex -33.5 -33.5 20.08
      vertex 33.5 -33.5 20.08
    endloop
  endfacet
  facet normal 0 0 1
    outer loop
      vertex -28 -14 20.08
      vertex -33.5 -33.5 20.08
      vertex -28 -28 20.08
    endloop
  endfacet
  facet normal 0 0 -1
    outer loop
      vertex -23.5 28 17.08
      vertex -28 28 17.08
      vertex -23.5 28.5 17.08
    endloop
  endfacet
  facet normal 0 0 -1
    outer loop
      vertex -28 7 17.08
      vertex -23.5 7.5 17.08
      vertex -23.5 7 17.08
    endloop
  endfacet
  facet normal -0 0 -1
    outer loop
      vertex -23.5 7.5 17.08
      vertex -28 7 17.08
      vertex -23.5 13.5 17.08
    endloop
  endfacet
  facet normal 0 0 -1
    outer loop
      vertex -28 14 17.08
      vertex -23.5 13.5 17.08
      vertex -28 7 17.08
    endloop
  endfacet
  facet normal 0 0 -1
    outer loop
      vertex -23.5 13.5 17.08
      vertex -28 14 17.08
      vertex -23.5 14 17.08
    endloop
  endfacet
  facet normal 0 0 -1
    outer loop
      vertex -28 -14 17.08
      vertex -23.5 -13.5 17.08
      vertex -23.5 -14 17.08
    endloop
  endfacet
  facet normal -0 0 -1
    outer loop
      vertex -23.5 -13.5 17.08
      vertex -28 -14 17.08
      vertex -23.5 -7.5 17.08
    endloop
  endfacet
  facet normal 0 0 -1
    outer loop
      vertex -28 -7 17.08
      vertex -23.5 -7.5 17.08
      vertex -28 -14 17.08
    endloop
  endfacet
  facet normal 0 0 -1
    outer loop
      vertex -23.5 -7.5 17.08
      vertex -28 -7 17.08
      vertex -23.5 -7 17.08
    endloop
  endfacet
  facet normal 0 0 -1
    outer loop
      vertex -23.5 7.5 17.08
      vertex -18.5 13.5 17.08
      vertex -18.5 7.5 17.08
    endloop
  endfacet
  facet normal -0 0 -1
    outer loop
      vertex -18.5 13.5 17.08
      vertex -23.5 7.5 17.08
      vertex -23.5 13.5 17.08
    endloop
  endfacet
  facet normal 0 0 -1
    outer loop
      vertex -23.5 -13.5 17.08
      vertex -18.5 -7.5 17.08
      vertex -18.5 -13.5 17.08
    endloop
  endfacet
  facet normal -0 0 -1
    outer loop
      vertex -18.5 -7.5 17.08
      vertex -23.5 -13.5 17.08
      vertex -23.5 -7.5 17.08
    endloop
  endfacet
  facet normal 0 0 -1
    outer loop
      vertex -18.5 7.5 17.08
      vertex -14 7 17.08
      vertex -18.5 7 17.08
    endloop
  endfacet
  facet normal 0 0 -1
    outer loop
      vertex -14 7 17.08
      vertex -18.5 7.5 17.08
      vertex -14 14 17.08
    endloop
  endfacet
  facet normal 0 0 -1
    outer loop
      vertex -18.5 13.5 17.08
      vertex -14 14 17.08
      vertex -18.5 7.5 17.08
    endloop
  endfacet
  facet normal -0 0 -1
    outer loop
      vertex -14 14 17.08
      vertex -18.5 13.5 17.08
      vertex -18.5 14 17.08
    endloop
  endfacet
  facet normal 0 0 -1
    outer loop
      vertex -18.5 -13.5 17.08
      vertex -14 -14 17.08
      vertex -18.5 -14 17.08
    endloop
  endfacet
  facet normal 0 0 -1
    outer loop
      vertex -14 -14 17.08
      vertex -18.5 -13.5 17.08
      vertex -14 -7 17.08
    endloop
  endfacet
  facet normal 0 0 -1
    outer loop
      vertex -18.5 -7.5 17.08
      vertex -14 -7 17.08
      vertex -18.5 -13.5 17.08
    endloop
  endfacet
  facet normal -0 0 -1
    outer loop
      vertex -14 -7 17.08
      vertex -18.5 -7.5 17.08
      vertex -18.5 -7 17.08
    endloop
  endfacet
  facet normal -0 0 -1
    outer loop
      vertex -14 -28 17.08
      vertex -18.5 -28.5 17.08
      vertex -18.5 -28 17.08
    endloop
  endfacet
  facet normal 0 0 -1
    outer loop
      vertex -2.5 28 17.08
      vertex -7 28 17.08
      vertex -2.5 28.5 17.08
    endloop
  endfacet
  facet normal 0 0 -1
    outer loop
      vertex -7 7 17.08
      vertex -2.5 7.5 17.08
      vertex -2.5 7 17.08
    endloop
  endfacet
  facet normal -0 0 -1
    outer loop
      vertex -2.5 7.5 17.08
      vertex -7 7 17.08
      vertex -2.5 13.5 17.08
    endloop
  endfacet
  facet normal 0 0 -1
    outer loop
      vertex -7 14 17.08
      vertex -2.5 13.5 17.08
      vertex -7 7 17.08
    endloop
  endfacet
  facet normal 0 0 -1
    outer loop
      vertex -2.5 13.5 17.08
      vertex -7 14 17.08
      vertex -2.5 14 17.08
    endloop
  endfacet
  facet normal 0 0 -1
    outer loop
      vertex -7 -14 17.08
      vertex -2.5 -13.5 17.08
      vertex -2.5 -14 17.08
    endloop
  endfacet
  facet normal -0 0 -1
    outer loop
      vertex -2.5 -13.5 17.08
      vertex -7 -14 17.08
      vertex -2.5 -7.5 17.08
    endloop
  endfacet
  facet normal 0 0 -1
    outer loop
      vertex -7 -7 17.08
      vertex -2.5 -7.5 17.08
      vertex -7 -14 17.08
    endloop
  endfacet
  facet normal 0 0 -1
    outer loop
      vertex -2.5 -7.5 17.08
      vertex -7 -7 17.08
      vertex -2.5 -7 17.08
    endloop
  endfacet
  facet normal 0 0 -1
    outer loop
      vertex -2.5 7.5 17.08
      vertex 2.5 13.5 17.08
      vertex 2.5 7.5 17.08
    endloop
  endfacet
  facet normal -0 0 -1
    outer loop
      vertex 2.5 13.5 17.08
      vertex -2.5 7.5 17.08
      vertex -2.5 13.5 17.08
    endloop
  endfacet
  facet normal 0 0 -1
    outer loop
      vertex -2.5 -13.5 17.08
      vertex 2.5 -7.5 17.08
      vertex 2.5 -13.5 17.08
    endloop
  endfacet
  facet normal -0 0 -1
    outer loop
      vertex 2.5 -7.5 17.08
      vertex -2.5 -13.5 17.08
      vertex -2.5 -7.5 17.08
    endloop
  endfacet
  facet normal 0 0 -1
    outer loop
      vertex 2.5 7.5 17.08
      vertex 7 7 17.08
      vertex 2.5 7 17.08
    endloop
  endfacet
  facet normal 0 0 -1
    outer loop
      vertex 7 7 17.08
      vertex 2.5 7.5 17.08
      vertex 7 14 17.08
    endloop
  endfacet
  facet normal 0 0 -1
    outer loop
      vertex 2.5 13.5 17.08
      vertex 7 14 17.08
      vertex 2.5 7.5 17.08
    endloop
  endfacet
  facet normal -0 0 -1
    outer loop
      vertex 7 14 17.08
      vertex 2.5 13.5 17.08
      vertex 2.5 14 17.08
    endloop
  endfacet
  facet normal 0 0 -1
    outer loop
      vertex 2.5 -13.5 17.08
      vertex 7 -14 17.08
      vertex 2.5 -14 17.08
    endloop
  endfacet
  facet normal 0 0 -1
    outer loop
      vertex 7 -14 17.08
      vertex 2.5 -13.5 17.08
      vertex 7 -7 17.08
    endloop
  endfacet
  facet normal 0 0 -1
    outer loop
      vertex 2.5 -7.5 17.08
      vertex 7 -7 17.08
      vertex 2.5 -13.5 17.08
    endloop
  endfacet
  facet normal -0 0 -1
    outer loop
      vertex 7 -7 17.08
      vertex 2.5 -7.5 17.08
      vertex 2.5 -7 17.08
    endloop
  endfacet
  facet normal -0 0 -1
    outer loop
      vertex 7 -28 17.08
      vertex 2.5 -28.5 17.08
      vertex 2.5 -28 17.08
    endloop
  endfacet
  facet normal 0 0 -1
    outer loop
      vertex 18.5 28 17.08
      vertex 14 28 17.08
      vertex 18.5 28.5 17.08
    endloop
  endfacet
  facet normal 0 0 -1
    outer loop
      vertex 14 7 17.08
      vertex 18.5 7.5 17.08
      vertex 18.5 7 17.08
    endloop
  endfacet
  facet normal -0 0 -1
    outer loop
      vertex 18.5 7.5 17.08
      vertex 14 7 17.08
      vertex 18.5 13.5 17.08
    endloop
  endfacet
  facet normal 0 0 -1
    outer loop
      vertex 14 14 17.08
      vertex 18.5 13.5 17.08
      vertex 14 7 17.08
    endloop
  endfacet
  facet normal 0 0 -1
    outer loop
      vertex 18.5 13.5 17.08
      vertex 14 14 17.08
      vertex 18.5 14 17.08
    endloop
  endfacet
  facet normal 0 0 -1
    outer loop
      vertex 14 -14 17.08
      vertex 18.5 -13.5 17.08
      vertex 18.5 -14 17.08
    endloop
  endfacet
  facet normal -0 0 -1
    outer loop
      vertex 18.5 -13.5 17.08
      vertex 14 -14 17.08
      vertex 18.5 -7.5 17.08
    endloop
  endfacet
  facet normal 0 0 -1
    outer loop
      vertex 14 -7 17.08
      vertex 18.5 -7.5 17.08
      vertex 14 -14 17.08
    endloop
  endfacet
  facet normal 0 0 -1
    outer loop
      vertex 18.5 -7.5 17.08
      vertex 14 -7 17.08
      vertex 18.5 -7 17.08
    endloop
  endfacet
  facet normal 0 0 -1
    outer loop
      vertex 18.5 7.5 17.08
      vertex 23.5 13.5 17.08
      vertex 23.5 7.5 17.08
    endloop
  endfacet
  facet normal -0 0 -1
    outer loop
      vertex 23.5 13.5 17.08
      vertex 18.5 7.5 17.08
      vertex 18.5 13.5 17.08
    endloop
  endfacet
  facet normal 0 0 -1
    outer loop
      vertex 18.5 -13.5 17.08
      vertex 23.5 -7.5 17.08
      vertex 23.5 -13.5 17.08
    endloop
  endfacet
  facet normal -0 0 -1
    outer loop
      vertex 23.5 -7.5 17.08
      vertex 18.5 -13.5 17.08
      vertex 18.5 -7.5 17.08
    endloop
  endfacet
  facet normal 0 0 -1
    outer loop
      vertex 23.5 7.5 17.08
      vertex 28 7 17.08
      vertex 23.5 7 17.08
    endloop
  endfacet
  facet normal 0 0 -1
    outer loop
      vertex 28 7 17.08
      vertex 23.5 7.5 17.08
      vertex 28 14 17.08
    endloop
  endfacet
  facet normal 0 0 -1
    outer loop
      vertex 23.5 13.5 17.08
      vertex 28 14 17.08
      vertex 23.5 7.5 17.08
    endloop
  endfacet
  facet normal -0 0 -1
    outer loop
      vertex 28 14 17.08
      vertex 23.5 13.5 17.08
      vertex 23.5 14 17.08
    endloop
  endfacet
  facet normal 0 0 -1
    outer loop
      vertex 23.5 -13.5 17.08
      vertex 28 -14 17.08
      vertex 23.5 -14 17.08
    endloop
  endfacet
  facet normal 0 0 -1
    outer loop
      vertex 28 -14 17.08
      vertex 23.5 -13.5 17.08
      vertex 28 -7 17.08
    endloop
  endfacet
  facet normal 0 0 -1
    outer loop
      vertex 23.5 -7.5 17.08
      vertex 28 -7 17.08
      vertex 23.5 -13.5 17.08
    endloop
  endfacet
  facet normal -0 0 -1
    outer loop
      vertex 28 -7 17.08
      vertex 23.5 -7.5 17.08
      vertex 23.5 -7 17.08
    endloop
  endfacet
  facet normal 0 0 -1
    outer loop
      vertex 28 -14 17.08
      vertex 30.5 -30.5 17.08
      vertex 28 -28 17.08
    endloop
  endfacet
  facet normal 0 0 -1
    outer loop
      vertex 30.5 -30.5 17.08
      vertex 23.5 -28.5 17.08
      vertex 28 -28 17.08
    endloop
  endfacet
  facet normal 0 0 -1
    outer loop
      vertex 30.5 -30.5 17.08
      vertex 18.5 -28.5 17.08
      vertex 23.5 -28.5 17.08
    endloop
  endfacet
  facet normal 0 0 -1
    outer loop
      vertex 18.5 -28.5 17.08
      vertex 14 -28 17.08
      vertex 18.5 -28 17.08
    endloop
  endfacet
  facet normal 0 0 -1
    outer loop
      vertex 2.5 -28.5 17.08
      vertex 18.5 -28.5 17.08
      vertex 30.5 -30.5 17.08
    endloop
  endfacet
  facet normal 0 0 -1
    outer loop
      vertex 7 -14 17.08
      vertex 14 -14 17.08
      vertex 14 -28 17.08
    endloop
  endfacet
  facet normal 0 0 -1
    outer loop
      vertex 14 -14 17.08
      vertex 7 -14 17.08
      vertex 14 -7 17.08
    endloop
  endfacet
  facet normal 0 0 -1
    outer loop
      vertex 14 -7 17.08
      vertex 7 -7 17.08
      vertex 14 7 17.08
    endloop
  endfacet
  facet normal 0 0 -1
    outer loop
      vertex 7 7 17.08
      vertex 14 7 17.08
      vertex 7 -7 17.08
    endloop
  endfacet
  facet normal 0 0 -1
    outer loop
      vertex 7 -14 17.08
      vertex 14 -28 17.08
      vertex 7 -28 17.08
    endloop
  endfacet
  facet normal 0 0 -1
    outer loop
      vertex 18.5 -28.5 17.08
      vertex 2.5 -28.5 17.08
      vertex 14 -28 17.08
    endloop
  endfacet
  facet normal -0 0 -1
    outer loop
      vertex 14 -28 17.08
      vertex 2.5 -28.5 17.08
      vertex 7 -28 17.08
    endloop
  endfacet
  facet normal 0 0 -1
    outer loop
      vertex 30.5 -30.5 17.08
      vertex -2.5 -28.5 17.08
      vertex 2.5 -28.5 17.08
    endloop
  endfacet
  facet normal 0 0 -1
    outer loop
      vertex -2.5 -28.5 17.08
      vertex -7 -28 17.08
      vertex -2.5 -28 17.08
    endloop
  endfacet
  facet normal 0 0 -1
    outer loop
      vertex -14 -14 17.08
      vertex -7 -14 17.08
      vertex -7 -28 17.08
    endloop
  endfacet
  facet normal 0 0 -1
    outer loop
      vertex -7 -14 17.08
      vertex -14 -14 17.08
      vertex -7 -7 17.08
    endloop
  endfacet
  facet normal 0 0 -1
    outer loop
      vertex -7 -7 17.08
      vertex -14 -7 17.08
      vertex -7 7 17.08
    endloop
  endfacet
  facet normal 0 0 -1
    outer loop
      vertex -14 7 17.08
      vertex -7 7 17.08
      vertex -14 -7 17.08
    endloop
  endfacet
  facet normal 0 0 -1
    outer loop
      vertex -14 -14 17.08
      vertex -7 -28 17.08
      vertex -14 -28 17.08
    endloop
  endfacet
  facet normal 0 0 -1
    outer loop
      vertex -2.5 -28.5 17.08
      vertex -14 -28 17.08
      vertex -7 -28 17.08
    endloop
  endfacet
  facet normal 0 0 -1
    outer loop
      vertex -30.5 -30.5 17.08
      vertex -2.5 -28.5 17.08
      vertex 30.5 -30.5 17.08
    endloop
  endfacet
  facet normal 0 0 -1
    outer loop
      vertex -2.5 -28.5 17.08
      vertex -18.5 -28.5 17.08
      vertex -14 -28 17.08
    endloop
  endfacet
  facet normal -0 0 -1
    outer loop
      vertex -2.5 -28.5 17.08
      vertex -30.5 -30.5 17.08
      vertex -18.5 -28.5 17.08
    endloop
  endfacet
  facet normal 0 0 -1
    outer loop
      vertex -23.5 -28.5 17.08
      vertex -28 -28 17.08
      vertex -23.5 -28 17.08
    endloop
  endfacet
  facet normal 0 0 -1
    outer loop
      vertex -30.5 -30.5 17.08
      vertex -28 -14 17.08
      vertex -28 -28 17.08
    endloop
  endfacet
  facet normal -0 0 -1
    outer loop
      vertex -28 -14 17.08
      vertex -30.5 -30.5 17.08
      vertex -28 -7 17.08
    endloop
  endfacet
  facet normal -0 0 -1
    outer loop
      vertex -28 -7 17.08
      vertex -30.5 -30.5 17.08
      vertex -28 7 17.08
    endloop
  endfacet
  facet normal 0 0 -1
    outer loop
      vertex -30.5 30.5 17.08
      vertex -28 7 17.08
      vertex -30.5 -30.5 17.08
    endloop
  endfacet
  facet normal 0 0 -1
    outer loop
      vertex -28 7 17.08
      vertex -30.5 30.5 17.08
      vertex -28 14 17.08
    endloop
  endfacet
  facet normal -0 0 -1
    outer loop
      vertex -23.5 -28.5 17.08
      vertex -30.5 -30.5 17.08
      vertex -28 -28 17.08
    endloop
  endfacet
  facet normal -0 0 -1
    outer loop
      vertex -18.5 -28.5 17.08
      vertex -30.5 -30.5 17.08
      vertex -23.5 -28.5 17.08
    endloop
  endfacet
  facet normal 0 0 -1
    outer loop
      vertex 28 -7 17.08
      vertex 30.5 -30.5 17.08
      vertex 28 -14 17.08
    endloop
  endfacet
  facet normal 0 0 -1
    outer loop
      vertex 30.5 -30.5 17.08
      vertex 28 -7 17.08
      vertex 30.5 30.5 17.08
    endloop
  endfacet
  facet normal 0 0 -1
    outer loop
      vertex 28 7 17.08
      vertex 30.5 30.5 17.08
      vertex 28 -7 17.08
    endloop
  endfacet
  facet normal 0 0 -1
    outer loop
      vertex 28 14 17.08
      vertex 30.5 30.5 17.08
      vertex 28 7 17.08
    endloop
  endfacet
  facet normal 0 0 -1
    outer loop
      vertex 28 28 17.08
      vertex 30.5 30.5 17.08
      vertex 28 14 17.08
    endloop
  endfacet
  facet normal 0 0 -1
    outer loop
      vertex 23.5 28.5 17.08
      vertex 28 28 17.08
      vertex 23.5 28 17.08
    endloop
  endfacet
  facet normal 0 0 -1
    outer loop
      vertex 28 28 17.08
      vertex 23.5 28.5 17.08
      vertex 30.5 30.5 17.08
    endloop
  endfacet
  facet normal 0 0 -1
    outer loop
      vertex 18.5 28.5 17.08
      vertex 30.5 30.5 17.08
      vertex 23.5 28.5 17.08
    endloop
  endfacet
  facet normal 0 0 -1
    outer loop
      vertex 2.5 28.5 17.08
      vertex 18.5 28.5 17.08
      vertex 14 28 17.08
    endloop
  endfacet
  facet normal -0 0 -1
    outer loop
      vertex 14 -7 17.08
      vertex 7 -14 17.08
      vertex 7 -7 17.08
    endloop
  endfacet
  facet normal 0 0 -1
    outer loop
      vertex 14 7 17.08
      vertex 7 7 17.08
      vertex 14 14 17.08
    endloop
  endfacet
  facet normal 0 0 -1
    outer loop
      vertex 7 14 17.08
      vertex 14 14 17.08
      vertex 7 7 17.08
    endloop
  endfacet
  facet normal 0 0 -1
    outer loop
      vertex 14 14 17.08
      vertex 7 14 17.08
      vertex 14 28 17.08
    endloop
  endfacet
  facet normal 0 0 -1
    outer loop
      vertex 7 28 17.08
      vertex 14 28 17.08
      vertex 7 14 17.08
    endloop
  endfacet
  facet normal 0 0 -1
    outer loop
      vertex 2.5 28.5 17.08
      vertex 14 28 17.08
      vertex 7 28 17.08
    endloop
  endfacet
  facet normal 0 0 -1
    outer loop
      vertex 2.5 28.5 17.08
      vertex 7 28 17.08
      vertex 2.5 28 17.08
    endloop
  endfacet
  facet normal 0 0 -1
    outer loop
      vertex 18.5 28.5 17.08
      vertex 2.5 28.5 17.08
      vertex 30.5 30.5 17.08
    endloop
  endfacet
  facet normal 0 0 -1
    outer loop
      vertex -2.5 28.5 17.08
      vertex 30.5 30.5 17.08
      vertex 2.5 28.5 17.08
    endloop
  endfacet
  facet normal -0 0 -1
    outer loop
      vertex -7 -7 17.08
      vertex -14 -14 17.08
      vertex -14 -7 17.08
    endloop
  endfacet
  facet normal 0 0 -1
    outer loop
      vertex -7 7 17.08
      vertex -14 7 17.08
      vertex -7 14 17.08
    endloop
  endfacet
  facet normal 0 0 -1
    outer loop
      vertex -14 14 17.08
      vertex -7 14 17.08
      vertex -14 7 17.08
    endloop
  endfacet
  facet normal 0 0 -1
    outer loop
      vertex -7 14 17.08
      vertex -14 14 17.08
      vertex -7 28 17.08
    endloop
  endfacet
  facet normal 0 0 -1
    outer loop
      vertex -14 28 17.08
      vertex -7 28 17.08
      vertex -14 14 17.08
    endloop
  endfacet
  facet normal 0 0 -1
    outer loop
      vertex -14 28 17.08
      vertex -2.5 28.5 17.08
      vertex -7 28 17.08
    endloop
  endfacet
  facet normal 0 0 -1
    outer loop
      vertex -18.5 28.5 17.08
      vertex -2.5 28.5 17.08
      vertex -14 28 17.08
    endloop
  endfacet
  facet normal 0 0 -1
    outer loop
      vertex -18.5 28.5 17.08
      vertex -14 28 17.08
      vertex -18.5 28 17.08
    endloop
  endfacet
  facet normal 0 0 -1
    outer loop
      vertex -30.5 30.5 17.08
      vertex -2.5 28.5 17.08
      vertex -18.5 28.5 17.08
    endloop
  endfacet
  facet normal 0 0 -1
    outer loop
      vertex -30.5 30.5 17.08
      vertex -18.5 28.5 17.08
      vertex -23.5 28.5 17.08
    endloop
  endfacet
  facet normal 0 0 -1
    outer loop
      vertex -2.5 28.5 17.08
      vertex -30.5 30.5 17.08
      vertex 30.5 30.5 17.08
    endloop
  endfacet
  facet normal 0 0 -1
    outer loop
      vertex -28 28 17.08
      vertex -30.5 30.5 17.08
      vertex -23.5 28.5 17.08
    endloop
  endfacet
  facet normal 0 0 -1
    outer loop
      vertex -28 14 17.08
      vertex -30.5 30.5 17.08
      vertex -28 28 17.08
    endloop
  endfacet
  facet normal -0 0 -1
    outer loop
      vertex 28 -28 17.08
      vertex 23.5 -28.5 17.08
      vertex 23.5 -28 17.08
    endloop
  endfacet
  facet normal 0 -1 0
    outer loop
      vertex 14 -14 20.08
      vertex 18.5 -14 18.78
      vertex 28 -14 20.08
    endloop
  endfacet
  facet normal 0 -1 0
    outer loop
      vertex 14 -14 17.08
      vertex 18.5 -14 18.78
      vertex 14 -14 20.08
    endloop
  endfacet
  facet normal 0 -1 -0
    outer loop
      vertex 18.5 -14 18.78
      vertex 14 -14 17.08
      vertex 18.5 -14 17.08
    endloop
  endfacet
  facet normal 0 -1 0
    outer loop
      vertex 23.5 -14 18.78
      vertex 28 -14 20.08
      vertex 18.5 -14 18.78
    endloop
  endfacet
  facet normal 0 -1 0
    outer loop
      vertex 28 -14 17.08
      vertex 23.5 -14 18.78
      vertex 23.5 -14 17.08
    endloop
  endfacet
  facet normal 0 -1 0
    outer loop
      vertex 23.5 -14 18.78
      vertex 28 -14 17.08
      vertex 28 -14 20.08
    endloop
  endfacet
  facet normal -1 0 0
    outer loop
      vertex 23.5 -14 17.08
      vertex 23.5 -13.5 18.78
      vertex 23.5 -13.5 17.08
    endloop
  endfacet
  facet normal -1 -0 0
    outer loop
      vertex 23.5 -13.5 18.78
      vertex 23.5 -14 17.08
      vertex 23.5 -14 18.78
    endloop
  endfacet
  facet normal 0 0 -1
    outer loop
      vertex 18.5 -14 18.78
      vertex 23.5 -13.5 18.78
      vertex 23.5 -14 18.78
    endloop
  endfacet
  facet normal -0 0 -1
    outer loop
      vertex 23.5 -13.5 18.78
      vertex 18.5 -14 18.78
      vertex 18.5 -13.5 18.78
    endloop
  endfacet
  facet normal 1 -0 0
    outer loop
      vertex 18.5 -14 18.78
      vertex 18.5 -13.5 17.08
      vertex 18.5 -13.5 18.78
    endloop
  endfacet
  facet normal 1 0 0
    outer loop
      vertex 18.5 -13.5 17.08
      vertex 18.5 -14 18.78
      vertex 18.5 -14 17.08
    endloop
  endfacet
  facet normal 0 -1 0
    outer loop
      vertex 18.5 -13.5 17.08
      vertex 23.5 -13.5 18.78
      vertex 18.5 -13.5 18.78
    endloop
  endfacet
  facet normal 0 -1 -0
    outer loop
      vertex 23.5 -13.5 18.78
      vertex 18.5 -13.5 17.08
      vertex 23.5 -13.5 17.08
    endloop
  endfacet
  facet normal 0 1 0
    outer loop
      vertex 28 -28 20.08
      vertex 23.5 -28 18.78
      vertex 14 -28 20.08
    endloop
  endfacet
  facet normal 0 1 -0
    outer loop
      vertex 28 -28 17.08
      vertex 23.5 -28 18.78
      vertex 28 -28 20.08
    endloop
  endfacet
  facet normal 0 1 0
    outer loop
      vertex 23.5 -28 18.78
      vertex 28 -28 17.08
      vertex 23.5 -28 17.08
    endloop
  endfacet
  facet normal 0 1 -0
    outer loop
      vertex 18.5 -28 18.78
      vertex 14 -28 20.08
      vertex 23.5 -28 18.78
    endloop
  endfacet
  facet normal 0 1 0
    outer loop
      vertex 14 -28 17.08
      vertex 18.5 -28 18.78
      vertex 18.5 -28 17.08
    endloop
  endfacet
  facet normal 0 1 0
    outer loop
      vertex 18.5 -28 18.78
      vertex 14 -28 17.08
      vertex 14 -28 20.08
    endloop
  endfacet
  facet normal 1 -0 0
    outer loop
      vertex 18.5 -28.5 18.78
      vertex 18.5 -28 17.08
      vertex 18.5 -28 18.78
    endloop
  endfacet
  facet normal 1 0 0
    outer loop
      vertex 18.5 -28 17.08
      vertex 18.5 -28.5 18.78
      vertex 18.5 -28.5 17.08
    endloop
  endfacet
  facet normal 0 0 -1
    outer loop
      vertex 18.5 -28.5 18.78
      vertex 23.5 -28 18.78
      vertex 23.5 -28.5 18.78
    endloop
  endfacet
  facet normal -0 0 -1
    outer loop
      vertex 23.5 -28 18.78
      vertex 18.5 -28.5 18.78
      vertex 18.5 -28 18.78
    endloop
  endfacet
  facet normal -1 0 0
    outer loop
      vertex 23.5 -28.5 17.08
      vertex 23.5 -28 18.78
      vertex 23.5 -28 17.08
    endloop
  endfacet
  facet normal -1 -0 0
    outer loop
      vertex 23.5 -28 18.78
      vertex 23.5 -28.5 17.08
      vertex 23.5 -28.5 18.78
    endloop
  endfacet
  facet normal 0 1 -0
    outer loop
      vertex 23.5 -28.5 17.08
      vertex 18.5 -28.5 18.78
      vertex 23.5 -28.5 18.78
    endloop
  endfacet
  facet normal 0 1 0
    outer loop
      vertex 18.5 -28.5 18.78
      vertex 23.5 -28.5 17.08
      vertex 18.5 -28.5 17.08
    endloop
  endfacet
  facet normal -1 0 0
    outer loop
      vertex 28 -28 17.08
      vertex 28 -14 20.08
      vertex 28 -14 17.08
    endloop
  endfacet
  facet normal -1 -0 0
    outer loop
      vertex 28 -14 20.08
      vertex 28 -28 17.08
      vertex 28 -28 20.08
    endloop
  endfacet
  facet normal 1 -0 0
    outer loop
      vertex 14 -28 20.08
      vertex 14 -14 17.08
      vertex 14 -14 20.08
    endloop
  endfacet
  facet normal 1 0 0
    outer loop
      vertex 14 -14 17.08
      vertex 14 -28 20.08
      vertex 14 -28 17.08
    endloop
  endfacet
  facet normal 0 -1 0
    outer loop
      vertex -7 -14 20.08
      vertex -2.5 -14 18.78
      vertex 7 -14 20.08
    endloop
  endfacet
  facet normal 0 -1 0
    outer loop
      vertex -7 -14 17.08
      vertex -2.5 -14 18.78
      vertex -7 -14 20.08
    endloop
  endfacet
  facet normal 0 -1 -0
    outer loop
      vertex -2.5 -14 18.78
      vertex -7 -14 17.08
      vertex -2.5 -14 17.08
    endloop
  endfacet
  facet normal 0 -1 0
    outer loop
      vertex 2.5 -14 18.78
      vertex 7 -14 20.08
      vertex -2.5 -14 18.78
    endloop
  endfacet
  facet normal 0 -1 0
    outer loop
      vertex 7 -14 17.08
      vertex 2.5 -14 18.78
      vertex 2.5 -14 17.08
    endloop
  endfacet
  facet normal 0 -1 0
    outer loop
      vertex 2.5 -14 18.78
      vertex 7 -14 17.08
      vertex 7 -14 20.08
    endloop
  endfacet
  facet normal -1 0 0
    outer loop
      vertex 2.5 -14 17.08
      vertex 2.5 -13.5 18.78
      vertex 2.5 -13.5 17.08
    endloop
  endfacet
  facet normal -1 -0 0
    outer loop
      vertex 2.5 -13.5 18.78
      vertex 2.5 -14 17.08
      vertex 2.5 -14 18.78
    endloop
  endfacet
  facet normal 0 0 -1
    outer loop
      vertex -2.5 -14 18.78
      vertex 2.5 -13.5 18.78
      vertex 2.5 -14 18.78
    endloop
  endfacet
  facet normal -0 0 -1
    outer loop
      vertex 2.5 -13.5 18.78
      vertex -2.5 -14 18.78
      vertex -2.5 -13.5 18.78
    endloop
  endfacet
  facet normal 1 -0 0
    outer loop
      vertex -2.5 -14 18.78
      vertex -2.5 -13.5 17.08
      vertex -2.5 -13.5 18.78
    endloop
  endfacet
  facet normal 1 0 0
    outer loop
      vertex -2.5 -13.5 17.08
      vertex -2.5 -14 18.78
      vertex -2.5 -14 17.08
    endloop
  endfacet
  facet normal 0 -1 0
    outer loop
      vertex -2.5 -13.5 17.08
      vertex 2.5 -13.5 18.78
      vertex -2.5 -13.5 18.78
    endloop
  endfacet
  facet normal 0 -1 -0
    outer loop
      vertex 2.5 -13.5 18.78
      vertex -2.5 -13.5 17.08
      vertex 2.5 -13.5 17.08
    endloop
  endfacet
  facet normal 0 1 0
    outer loop
      vertex 7 -28 20.08
      vertex 2.5 -28 18.78
      vertex -7 -28 20.08
    endloop
  endfacet
  facet normal 0 1 -0
    outer loop
      vertex 7 -28 17.08
      vertex 2.5 -28 18.78
      vertex 7 -28 20.08
    endloop
  endfacet
  facet normal 0 1 0
    outer loop
      vertex 2.5 -28 18.78
      vertex 7 -28 17.08
      vertex 2.5 -28 17.08
    endloop
  endfacet
  facet normal 0 1 -0
    outer loop
      vertex -2.5 -28 18.78
      vertex -7 -28 20.08
      vertex 2.5 -28 18.78
    endloop
  endfacet
  facet normal 0 1 0
    outer loop
      vertex -7 -28 17.08
      vertex -2.5 -28 18.78
      vertex -2.5 -28 17.08
    endloop
  endfacet
  facet normal 0 1 0
    outer loop
      vertex -2.5 -28 18.78
      vertex -7 -28 17.08
      vertex -7 -28 20.08
    endloop
  endfacet
  facet normal 1 -0 0
    outer loop
      vertex -2.5 -28.5 18.78
      vertex -2.5 -28 17.08
      vertex -2.5 -28 18.78
    endloop
  endfacet
  facet normal 1 0 0
    outer loop
      vertex -2.5 -28 17.08
      vertex -2.5 -28.5 18.78
      vertex -2.5 -28.5 17.08
    endloop
  endfacet
  facet normal 0 0 -1
    outer loop
      vertex -2.5 -28.5 18.78
      vertex 2.5 -28 18.78
      vertex 2.5 -28.5 18.78
    endloop
  endfacet
  facet normal -0 0 -1
    outer loop
      vertex 2.5 -28 18.78
      vertex -2.5 -28.5 18.78
      vertex -2.5 -28 18.78
    endloop
  endfacet
  facet normal -1 0 0
    outer loop
      vertex 2.5 -28.5 17.08
      vertex 2.5 -28 18.78
      vertex 2.5 -28 17.08
    endloop
  endfacet
  facet normal -1 -0 0
    outer loop
      vertex 2.5 -28 18.78
      vertex 2.5 -28.5 17.08
      vertex 2.5 -28.5 18.78
    endloop
  endfacet
  facet normal 0 1 -0
    outer loop
      vertex 2.5 -28.5 17.08
      vertex -2.5 -28.5 18.78
      vertex 2.5 -28.5 18.78
    endloop
  endfacet
  facet normal 0 1 0
    outer loop
      vertex -2.5 -28.5 18.78
      vertex 2.5 -28.5 17.08
      vertex -2.5 -28.5 17.08
    endloop
  endfacet
  facet normal -1 0 0
    outer loop
      vertex 7 -28 17.08
      vertex 7 -14 20.08
      vertex 7 -14 17.08
    endloop
  endfacet
  facet normal -1 -0 0
    outer loop
      vertex 7 -14 20.08
      vertex 7 -28 17.08
      vertex 7 -28 20.08
    endloop
  endfacet
  facet normal 1 -0 0
    outer loop
      vertex -7 -28 20.08
      vertex -7 -14 17.08
      vertex -7 -14 20.08
    endloop
  endfacet
  facet normal 1 0 0
    outer loop
      vertex -7 -14 17.08
      vertex -7 -28 20.08
      vertex -7 -28 17.08
    endloop
  endfacet
  facet normal 0 -1 0
    outer loop
      vertex -28 -14 20.08
      vertex -23.5 -14 18.78
      vertex -14 -14 20.08
    endloop
  endfacet
  facet normal 0 -1 0
    outer loop
      vertex -28 -14 17.08
      vertex -23.5 -14 18.78
      vertex -28 -14 20.08
    endloop
  endfacet
  facet normal 0 -1 -0
    outer loop
      vertex -23.5 -14 18.78
      vertex -28 -14 17.08
      vertex -23.5 -14 17.08
    endloop
  endfacet
  facet normal 0 -1 0
    outer loop
      vertex -18.5 -14 18.78
      vertex -14 -14 20.08
      vertex -23.5 -14 18.78
    endloop
  endfacet
  facet normal 0 -1 0
    outer loop
      vertex -14 -14 17.08
      vertex -18.5 -14 18.78
      vertex -18.5 -14 17.08
    endloop
  endfacet
  facet normal 0 -1 0
    outer loop
      vertex -18.5 -14 18.78
      vertex -14 -14 17.08
      vertex -14 -14 20.08
    endloop
  endfacet
  facet normal -1 0 0
    outer loop
      vertex -18.5 -14 17.08
      vertex -18.5 -13.5 18.78
      vertex -18.5 -13.5 17.08
    endloop
  endfacet
  facet normal -1 -0 0
    outer loop
      vertex -18.5 -13.5 18.78
      vertex -18.5 -14 17.08
      vertex -18.5 -14 18.78
    endloop
  endfacet
  facet normal 0 0 -1
    outer loop
      vertex -23.5 -14 18.78
      vertex -18.5 -13.5 18.78
      vertex -18.5 -14 18.78
    endloop
  endfacet
  facet normal -0 0 -1
    outer loop
      vertex -18.5 -13.5 18.78
      vertex -23.5 -14 18.78
      vertex -23.5 -13.5 18.78
    endloop
  endfacet
  facet normal 1 -0 0
    outer loop
      vertex -23.5 -14 18.78
      vertex -23.5 -13.5 17.08
      vertex -23.5 -13.5 18.78
    endloop
  endfacet
  facet normal 1 0 0
    outer loop
      vertex -23.5 -13.5 17.08
      vertex -23.5 -14 18.78
      vertex -23.5 -14 17.08
    endloop
  endfacet
  facet normal 0 -1 0
    outer loop
      vertex -23.5 -13.5 17.08
      vertex -18.5 -13.5 18.78
      vertex -23.5 -13.5 18.78
    endloop
  endfacet
  facet normal 0 -1 -0
    outer loop
      vertex -18.5 -13.5 18.78
      vertex -23.5 -13.5 17.08
      vertex -18.5 -13.5 17.08
    endloop
  endfacet
  facet normal 0 1 0
    outer loop
      vertex -14 -28 20.08
      vertex -18.5 -28 18.78
      vertex -28 -28 20.08
    endloop
  endfacet
  facet normal 0 1 -0
    outer loop
      vertex -14 -28 17.08
      vertex -18.5 -28 18.78
      vertex -14 -28 20.08
    endloop
  endfacet
  facet normal 0 1 0
    outer loop
      vertex -18.5 -28 18.78
      vertex -14 -28 17.08
      vertex -18.5 -28 17.08
    endloop
  endfacet
  facet normal 0 1 -0
    outer loop
      vertex -23.5 -28 18.78
      vertex -28 -28 20.08
      vertex -18.5 -28 18.78
    endloop
  endfacet
  facet normal 0 1 0
    outer loop
      vertex -28 -28 17.08
      vertex -23.5 -28 18.78
      vertex -23.5 -28 17.08
    endloop
  endfacet
  facet normal 0 1 0
    outer loop
      vertex -23.5 -28 18.78
      vertex -28 -28 17.08
      vertex -28 -28 20.08
    endloop
  endfacet
  facet normal 1 -0 0
    outer loop
      vertex -23.5 -28.5 18.78
      vertex -23.5 -28 17.08
      vertex -23.5 -28 18.78
    endloop
  endfacet
  facet normal 1 0 0
    outer loop
      vertex -23.5 -28 17.08
      vertex -23.5 -28.5 18.78
      vertex -23.5 -28.5 17.08
    endloop
  endfacet
  facet normal 0 0 -1
    outer loop
      vertex -23.5 -28.5 18.78
      vertex -18.5 -28 18.78
      vertex -18.5 -28.5 18.78
    endloop
  endfacet
  facet normal -0 0 -1
    outer loop
      vertex -18.5 -28 18.78
      vertex -23.5 -28.5 18.78
      vertex -23.5 -28 18.78
    endloop
  endfacet
  facet normal -1 0 0
    outer loop
      vertex -18.5 -28.5 17.08
      vertex -18.5 -28 18.78
      vertex -18.5 -28 17.08
    endloop
  endfacet
  facet normal -1 -0 0
    outer loop
      vertex -18.5 -28 18.78
      vertex -18.5 -28.5 17.08
      vertex -18.5 -28.5 18.78
    endloop
  endfacet
  facet normal 0 1 -0
    outer loop
      vertex -18.5 -28.5 17.08
      vertex -23.5 -28.5 18.78
      vertex -18.5 -28.5 18.78
    endloop
  endfacet
  facet normal 0 1 0
    outer loop
      vertex -23.5 -28.5 18.78
      vertex -18.5 -28.5 17.08
      vertex -23.5 -28.5 17.08
    endloop
  endfacet
  facet normal -1 0 0
    outer loop
      vertex -14 -28 17.08
      vertex -14 -14 20.08
      vertex -14 -14 17.08
    endloop
  endfacet
  facet normal -1 -0 0
    outer loop
      vertex -14 -14 20.08
      vertex -14 -28 17.08
      vertex -14 -28 20.08
    endloop
  endfacet
  facet normal 1 -0 0
    outer loop
      vertex -28 -28 20.08
      vertex -28 -14 17.08
      vertex -28 -14 20.08
    endloop
  endfacet
  facet normal 1 0 0
    outer loop
      vertex -28 -14 17.08
      vertex -28 -28 20.08
      vertex -28 -28 17.08
    endloop
  endfacet
  facet normal 0 -1 0
    outer loop
      vertex 14 7 20.08
      vertex 18.5 7 18.78
      vertex 28 7 20.08
    endloop
  endfacet
  facet normal 0 -1 0
    outer loop
      vertex 14 7 17.08
      vertex 18.5 7 18.78
      vertex 14 7 20.08
    endloop
  endfacet
  facet normal 0 -1 -0
    outer loop
      vertex 18.5 7 18.78
      vertex 14 7 17.08
      vertex 18.5 7 17.08
    endloop
  endfacet
  facet normal 0 -1 0
    outer loop
      vertex 23.5 7 18.78
      vertex 28 7 20.08
      vertex 18.5 7 18.78
    endloop
  endfacet
  facet normal 0 -1 0
    outer loop
      vertex 28 7 17.08
      vertex 23.5 7 18.78
      vertex 23.5 7 17.08
    endloop
  endfacet
  facet normal 0 -1 0
    outer loop
      vertex 23.5 7 18.78
      vertex 28 7 17.08
      vertex 28 7 20.08
    endloop
  endfacet
  facet normal -1 0 0
    outer loop
      vertex 23.5 7 17.08
      vertex 23.5 7.5 18.78
      vertex 23.5 7.5 17.08
    endloop
  endfacet
  facet normal -1 -0 0
    outer loop
      vertex 23.5 7.5 18.78
      vertex 23.5 7 17.08
      vertex 23.5 7 18.78
    endloop
  endfacet
  facet normal 0 0 -1
    outer loop
      vertex 18.5 7 18.78
      vertex 23.5 7.5 18.78
      vertex 23.5 7 18.78
    endloop
  endfacet
  facet normal -0 0 -1
    outer loop
      vertex 23.5 7.5 18.78
      vertex 18.5 7 18.78
      vertex 18.5 7.5 18.78
    endloop
  endfacet
  facet normal 1 -0 0
    outer loop
      vertex 18.5 7 18.78
      vertex 18.5 7.5 17.08
      vertex 18.5 7.5 18.78
    endloop
  endfacet
  facet normal 1 0 0
    outer loop
      vertex 18.5 7.5 17.08
      vertex 18.5 7 18.78
      vertex 18.5 7 17.08
    endloop
  endfacet
  facet normal 0 -1 0
    outer loop
      vertex 18.5 7.5 17.08
      vertex 23.5 7.5 18.78
      vertex 18.5 7.5 18.78
    endloop
  endfacet
  facet normal 0 -1 -0
    outer loop
      vertex 23.5 7.5 18.78
      vertex 18.5 7.5 17.08
      vertex 23.5 7.5 17.08
    endloop
  endfacet
  facet normal 0 1 0
    outer loop
      vertex 28 -7 20.08
      vertex 23.5 -7 18.78
      vertex 14 -7 20.08
    endloop
  endfacet
  facet normal 0 1 -0
    outer loop
      vertex 28 -7 17.08
      vertex 23.5 -7 18.78
      vertex 28 -7 20.08
    endloop
  endfacet
  facet normal 0 1 0
    outer loop
      vertex 23.5 -7 18.78
      vertex 28 -7 17.08
      vertex 23.5 -7 17.08
    endloop
  endfacet
  facet normal 0 1 -0
    outer loop
      vertex 18.5 -7 18.78
      vertex 14 -7 20.08
      vertex 23.5 -7 18.78
    endloop
  endfacet
  facet normal 0 1 0
    outer loop
      vertex 14 -7 17.08
      vertex 18.5 -7 18.78
      vertex 18.5 -7 17.08
    endloop
  endfacet
  facet normal 0 1 0
    outer loop
      vertex 18.5 -7 18.78
      vertex 14 -7 17.08
      vertex 14 -7 20.08
    endloop
  endfacet
  facet normal 1 -0 0
    outer loop
      vertex 18.5 -7.5 18.78
      vertex 18.5 -7 17.08
      vertex 18.5 -7 18.78
    endloop
  endfacet
  facet normal 1 0 0
    outer loop
      vertex 18.5 -7 17.08
      vertex 18.5 -7.5 18.78
      vertex 18.5 -7.5 17.08
    endloop
  endfacet
  facet normal 0 0 -1
    outer loop
      vertex 18.5 -7.5 18.78
      vertex 23.5 -7 18.78
      vertex 23.5 -7.5 18.78
    endloop
  endfacet
  facet normal -0 0 -1
    outer loop
      vertex 23.5 -7 18.78
      vertex 18.5 -7.5 18.78
      vertex 18.5 -7 18.78
    endloop
  endfacet
  facet normal -1 0 0
    outer loop
      vertex 23.5 -7.5 17.08
      vertex 23.5 -7 18.78
      vertex 23.5 -7 17.08
    endloop
  endfacet
  facet normal -1 -0 0
    outer loop
      vertex 23.5 -7 18.78
      vertex 23.5 -7.5 17.08
      vertex 23.5 -7.5 18.78
    endloop
  endfacet
  facet normal 0 1 -0
    outer loop
      vertex 23.5 -7.5 17.08
      vertex 18.5 -7.5 18.78
      vertex 23.5 -7.5 18.78
    endloop
  endfacet
  facet normal 0 1 0
    outer loop
      vertex 18.5 -7.5 18.78
      vertex 23.5 -7.5 17.08
      vertex 18.5 -7.5 17.08
    endloop
  endfacet
  facet normal -1 0 0
    outer loop
      vertex 28 -7 17.08
      vertex 28 7 20.08
      vertex 28 7 17.08
    endloop
  endfacet
  facet normal -1 -0 0
    outer loop
      vertex 28 7 20.08
      vertex 28 -7 17.08
      vertex 28 -7 20.08
    endloop
  endfacet
  facet normal 1 -0 0
    outer loop
      vertex 14 -7 20.08
      vertex 14 7 17.08
      vertex 14 7 20.08
    endloop
  endfacet
  facet normal 1 0 0
    outer loop
      vertex 14 7 17.08
      vertex 14 -7 20.08
      vertex 14 -7 17.08
    endloop
  endfacet
  facet normal 0 -1 0
    outer loop
      vertex -7 7 20.08
      vertex -2.5 7 18.78
      vertex 7 7 20.08
    endloop
  endfacet
  facet normal 0 -1 0
    outer loop
      vertex -7 7 17.08
      vertex -2.5 7 18.78
      vertex -7 7 20.08
    endloop
  endfacet
  facet normal 0 -1 -0
    outer loop
      vertex -2.5 7 18.78
      vertex -7 7 17.08
      vertex -2.5 7 17.08
    endloop
  endfacet
  facet normal 0 -1 0
    outer loop
      vertex 2.5 7 18.78
      vertex 7 7 20.08
      vertex -2.5 7 18.78
    endloop
  endfacet
  facet normal 0 -1 0
    outer loop
      vertex 7 7 17.08
      vertex 2.5 7 18.78
      vertex 2.5 7 17.08
    endloop
  endfacet
  facet normal 0 -1 0
    outer loop
      vertex 2.5 7 18.78
      vertex 7 7 17.08
      vertex 7 7 20.08
    endloop
  endfacet
  facet normal -1 0 0
    outer loop
      vertex 2.5 7 17.08
      vertex 2.5 7.5 18.78
      vertex 2.5 7.5 17.08
    endloop
  endfacet
  facet normal -1 -0 0
    outer loop
      vertex 2.5 7.5 18.78
      vertex 2.5 7 17.08
      vertex 2.5 7 18.78
    endloop
  endfacet
  facet normal 0 0 -1
    outer loop
      vertex -2.5 7 18.78
      vertex 2.5 7.5 18.78
      vertex 2.5 7 18.78
    endloop
  endfacet
  facet normal -0 0 -1
    outer loop
      vertex 2.5 7.5 18.78
      vertex -2.5 7 18.78
      vertex -2.5 7.5 18.78
    endloop
  endfacet
  facet normal 1 -0 0
    outer loop
      vertex -2.5 7 18.78
      vertex -2.5 7.5 17.08
      vertex -2.5 7.5 18.78
    endloop
  endfacet
  facet normal 1 0 0
    outer loop
      vertex -2.5 7.5 17.08
      vertex -2.5 7 18.78
      vertex -2.5 7 17.08
    endloop
  endfacet
  facet normal 0 -1 0
    outer loop
      vertex -2.5 7.5 17.08
      vertex 2.5 7.5 18.78
      vertex -2.5 7.5 18.78
    endloop
  endfacet
  facet normal 0 -1 -0
    outer loop
      vertex 2.5 7.5 18.78
      vertex -2.5 7.5 17.08
      vertex 2.5 7.5 17.08
    endloop
  endfacet
  facet normal 0 1 0
    outer loop
      vertex 7 -7 20.08
      vertex 2.5 -7 18.78
      vertex -7 -7 20.08
    endloop
  endfacet
  facet normal 0 1 -0
    outer loop
      vertex 7 -7 17.08
      vertex 2.5 -7 18.78
      vertex 7 -7 20.08
    endloop
  endfacet
  facet normal 0 1 0
    outer loop
      vertex 2.5 -7 18.78
      vertex 7 -7 17.08
      vertex 2.5 -7 17.08
    endloop
  endfacet
  facet normal 0 1 -0
    outer loop
      vertex -2.5 -7 18.78
      vertex -7 -7 20.08
      vertex 2.5 -7 18.78
    endloop
  endfacet
  facet normal 0 1 0
    outer loop
      vertex -7 -7 17.08
      vertex -2.5 -7 18.78
      vertex -2.5 -7 17.08
    endloop
  endfacet
  facet normal 0 1 0
    outer loop
      vertex -2.5 -7 18.78
      vertex -7 -7 17.08
      vertex -7 -7 20.08
    endloop
  endfacet
  facet normal 1 -0 0
    outer loop
      vertex -2.5 -7.5 18.78
      vertex -2.5 -7 17.08
      vertex -2.5 -7 18.78
    endloop
  endfacet
  facet normal 1 0 0
    outer loop
      vertex -2.5 -7 17.08
      vertex -2.5 -7.5 18.78
      vertex -2.5 -7.5 17.08
    endloop
  endfacet
  facet normal 0 0 -1
    outer loop
      vertex -2.5 -7.5 18.78
      vertex 2.5 -7 18.78
      vertex 2.5 -7.5 18.78
    endloop
  endfacet
  facet normal -0 0 -1
    outer loop
      vertex 2.5 -7 18.78
      vertex -2.5 -7.5 18.78
      vertex -2.5 -7 18.78
    endloop
  endfacet
  facet normal -1 0 0
    outer loop
      vertex 2.5 -7.5 17.08
      vertex 2.5 -7 18.78
      vertex 2.5 -7 17.08
    endloop
  endfacet
  facet normal -1 -0 0
    outer loop
      vertex 2.5 -7 18.78
      vertex 2.5 -7.5 17.08
      vertex 2.5 -7.5 18.78
    endloop
  endfacet
  facet normal 0 1 -0
    outer loop
      vertex 2.5 -7.5 17.08
      vertex -2.5 -7.5 18.78
      vertex 2.5 -7.5 18.78
    endloop
  endfacet
  facet normal 0 1 0
    outer loop
      vertex -2.5 -7.5 18.78
      vertex 2.5 -7.5 17.08
      vertex -2.5 -7.5 17.08
    endloop
  endfacet
  facet normal -1 0 0
    outer loop
      vertex 7 -7 17.08
      vertex 7 7 20.08
      vertex 7 7 17.08
    endloop
  endfacet
  facet normal -1 -0 0
    outer loop
      vertex 7 7 20.08
      vertex 7 -7 17.08
      vertex 7 -7 20.08
    endloop
  endfacet
  facet normal 1 -0 0
    outer loop
      vertex -7 -7 20.08
      vertex -7 7 17.08
      vertex -7 7 20.08
    endloop
  endfacet
  facet normal 1 0 0
    outer loop
      vertex -7 7 17.08
      vertex -7 -7 20.08
      vertex -7 -7 17.08
    endloop
  endfacet
  facet normal 0 -1 0
    outer loop
      vertex -28 7 20.08
      vertex -23.5 7 18.78
      vertex -14 7 20.08
    endloop
  endfacet
  facet normal 0 -1 0
    outer loop
      vertex -28 7 17.08
      vertex -23.5 7 18.78
      vertex -28 7 20.08
    endloop
  endfacet
  facet normal 0 -1 -0
    outer loop
      vertex -23.5 7 18.78
      vertex -28 7 17.08
      vertex -23.5 7 17.08
    endloop
  endfacet
  facet normal 0 -1 0
    outer loop
      vertex -18.5 7 18.78
      vertex -14 7 20.08
      vertex -23.5 7 18.78
    endloop
  endfacet
  facet normal 0 -1 0
    outer loop
      vertex -14 7 17.08
      vertex -18.5 7 18.78
      vertex -18.5 7 17.08
    endloop
  endfacet
  facet normal 0 -1 0
    outer loop
      vertex -18.5 7 18.78
      vertex -14 7 17.08
      vertex -14 7 20.08
    endloop
  endfacet
  facet normal -1 0 0
    outer loop
      vertex -18.5 7 17.08
      vertex -18.5 7.5 18.78
      vertex -18.5 7.5 17.08
    endloop
  endfacet
  facet normal -1 -0 0
    outer loop
      vertex -18.5 7.5 18.78
      vertex -18.5 7 17.08
      vertex -18.5 7 18.78
    endloop
  endfacet
  facet normal 0 0 -1
    outer loop
      vertex -23.5 7 18.78
      vertex -18.5 7.5 18.78
      vertex -18.5 7 18.78
    endloop
  endfacet
  facet normal -0 0 -1
    outer loop
      vertex -18.5 7.5 18.78
      vertex -23.5 7 18.78
      vertex -23.5 7.5 18.78
    endloop
  endfacet
  facet normal 1 -0 0
    outer loop
      vertex -23.5 7 18.78
      vertex -23.5 7.5 17.08
      vertex -23.5 7.5 18.78
    endloop
  endfacet
  facet normal 1 0 0
    outer loop
      vertex -23.5 7.5 17.08
      vertex -23.5 7 18.78
      vertex -23.5 7 17.08
    endloop
  endfacet
  facet normal 0 -1 0
    outer loop
      vertex -23.5 7.5 17.08
      vertex -18.5 7.5 18.78
      vertex -23.5 7.5 18.78
    endloop
  endfacet
  facet normal 0 -1 -0
    outer loop
      vertex -18.5 7.5 18.78
      vertex -23.5 7.5 17.08
      vertex -18.5 7.5 17.08
    endloop
  endfacet
  facet normal 0 1 0
    outer loop
      vertex -14 -7 20.08
      vertex -18.5 -7 18.78
      vertex -28 -7 20.08
    endloop
  endfacet
  facet normal 0 1 -0
    outer loop
      vertex -14 -7 17.08
      vertex -18.5 -7 18.78
      vertex -14 -7 20.08
    endloop
  endfacet
  facet normal 0 1 0
    outer loop
      vertex -18.5 -7 18.78
      vertex -14 -7 17.08
      vertex -18.5 -7 17.08
    endloop
  endfacet
  facet normal 0 1 -0
    outer loop
      vertex -23.5 -7 18.78
      vertex -28 -7 20.08
      vertex -18.5 -7 18.78
    endloop
  endfacet
  facet normal 0 1 0
    outer loop
      vertex -28 -7 17.08
      vertex -23.5 -7 18.78
      vertex -23.5 -7 17.08
    endloop
  endfacet
  facet normal 0 1 0
    outer loop
      vertex -23.5 -7 18.78
      vertex -28 -7 17.08
      vertex -28 -7 20.08
    endloop
  endfacet
  facet normal 1 -0 0
    outer loop
      vertex -23.5 -7.5 18.78
      vertex -23.5 -7 17.08
      vertex -23.5 -7 18.78
    endloop
  endfacet
  facet normal 1 0 0
    outer loop
      vertex -23.5 -7 17.08
      vertex -23.5 -7.5 18.78
      vertex -23.5 -7.5 17.08
    endloop
  endfacet
  facet normal 0 0 -1
    outer loop
      vertex -23.5 -7.5 18.78
      vertex -18.5 -7 18.78
      vertex -18.5 -7.5 18.78
    endloop
  endfacet
  facet normal -0 0 -1
    outer loop
      vertex -18.5 -7 18.78
      vertex -23.5 -7.5 18.78
      vertex -23.5 -7 18.78
    endloop
  endfacet
  facet normal -1 0 0
    outer loop
      vertex -18.5 -7.5 17.08
      vertex -18.5 -7 18.78
      vertex -18.5 -7 17.08
    endloop
  endfacet
  facet normal -1 -0 0
    outer loop
      vertex -18.5 -7 18.78
      vertex -18.5 -7.5 17.08
      vertex -18.5 -7.5 18.78
    endloop
  endfacet
  facet normal 0 1 -0
    outer loop
      vertex -18.5 -7.5 17.08
      vertex -23.5 -7.5 18.78
      vertex -18.5 -7.5 18.78
    endloop
  endfacet
  facet normal 0 1 0
    outer loop
      vertex -23.5 -7.5 18.78
      vertex -18.5 -7.5 17.08
      vertex -23.5 -7.5 17.08
    endloop
  endfacet
  facet normal -1 0 0
    outer loop
      vertex -14 -7 17.08
      vertex -14 7 20.08
      vertex -14 7 17.08
    endloop
  endfacet
  facet normal -1 -0 0
    outer loop
      vertex -14 7 20.08
      vertex -14 -7 17.08
      vertex -14 -7 20.08
    endloop
  endfacet
  facet normal 1 -0 0
    outer loop
      vertex -28 -7 20.08
      vertex -28 7 17.08
      vertex -28 7 20.08
    endloop
  endfacet
  facet normal 1 0 0
    outer loop
      vertex -28 7 17.08
      vertex -28 -7 20.08
      vertex -28 -7 17.08
    endloop
  endfacet
  facet normal 0 -1 0
    outer loop
      vertex 14 28 20.08
      vertex 18.5 28 18.78
      vertex 28 28 20.08
    endloop
  endfacet
  facet normal 0 -1 0
    outer loop
      vertex 14 28 17.08
      vertex 18.5 28 18.78
      vertex 14 28 20.08
    endloop
  endfacet
  facet normal 0 -1 -0
    outer loop
      vertex 18.5 28 18.78
      vertex 14 28 17.08
      vertex 18.5 28 17.08
    endloop
  endfacet
  facet normal 0 -1 0
    outer loop
      vertex 23.5 28 18.78
      vertex 28 28 20.08
      vertex 18.5 28 18.78
    endloop
  endfacet
  facet normal 0 -1 0
    outer loop
      vertex 28 28 17.08
      vertex 23.5 28 18.78
      vertex 23.5 28 17.08
    endloop
  endfacet
  facet normal 0 -1 0
    outer loop
      vertex 23.5 28 18.78
      vertex 28 28 17.08
      vertex 28 28 20.08
    endloop
  endfacet
  facet normal -1 0 0
    outer loop
      vertex 23.5 28 17.08
      vertex 23.5 28.5 18.78
      vertex 23.5 28.5 17.08
    endloop
  endfacet
  facet normal -1 -0 0
    outer loop
      vertex 23.5 28.5 18.78
      vertex 23.5 28 17.08
      vertex 23.5 28 18.78
    endloop
  endfacet
  facet normal 0 0 -1
    outer loop
      vertex 18.5 28 18.78
      vertex 23.5 28.5 18.78
      vertex 23.5 28 18.78
    endloop
  endfacet
  facet normal -0 0 -1
    outer loop
      vertex 23.5 28.5 18.78
      vertex 18.5 28 18.78
      vertex 18.5 28.5 18.78
    endloop
  endfacet
  facet normal 1 -0 0
    outer loop
      vertex 18.5 28 18.78
      vertex 18.5 28.5 17.08
      vertex 18.5 28.5 18.78
    endloop
  endfacet
  facet normal 1 0 0
    outer loop
      vertex 18.5 28.5 17.08
      vertex 18.5 28 18.78
      vertex 18.5 28 17.08
    endloop
  endfacet
  facet normal 0 -1 0
    outer loop
      vertex 18.5 28.5 17.08
      vertex 23.5 28.5 18.78
      vertex 18.5 28.5 18.78
    endloop
  endfacet
  facet normal 0 -1 -0
    outer loop
      vertex 23.5 28.5 18.78
      vertex 18.5 28.5 17.08
      vertex 23.5 28.5 17.08
    endloop
  endfacet
  facet normal 0 1 0
    outer loop
      vertex 28 14 20.08
      vertex 23.5 14 18.78
      vertex 14 14 20.08
    endloop
  endfacet
  facet normal 0 1 -0
    outer loop
      vertex 28 14 17.08
      vertex 23.5 14 18.78
      vertex 28 14 20.08
    endloop
  endfacet
  facet normal 0 1 0
    outer loop
      vertex 23.5 14 18.78
      vertex 28 14 17.08
      vertex 23.5 14 17.08
    endloop
  endfacet
  facet normal 0 1 -0
    outer loop
      vertex 18.5 14 18.78
      vertex 14 14 20.08
      vertex 23.5 14 18.78
    endloop
  endfacet
  facet normal 0 1 0
    outer loop
      vertex 14 14 17.08
      vertex 18.5 14 18.78
      vertex 18.5 14 17.08
    endloop
  endfacet
  facet normal 0 1 0
    outer loop
      vertex 18.5 14 18.78
      vertex 14 14 17.08
      vertex 14 14 20.08
    endloop
  endfacet
  facet normal 1 -0 0
    outer loop
      vertex 18.5 13.5 18.78
      vertex 18.5 14 17.08
      vertex 18.5 14 18.78
    endloop
  endfacet
  facet normal 1 0 0
    outer loop
      vertex 18.5 14 17.08
      vertex 18.5 13.5 18.78
      vertex 18.5 13.5 17.08
    endloop
  endfacet
  facet normal 0 0 -1
    outer loop
      vertex 18.5 13.5 18.78
      vertex 23.5 14 18.78
      vertex 23.5 13.5 18.78
    endloop
  endfacet
  facet normal -0 0 -1
    outer loop
      vertex 23.5 14 18.78
      vertex 18.5 13.5 18.78
      vertex 18.5 14 18.78
    endloop
  endfacet
  facet normal -1 0 0
    outer loop
      vertex 23.5 13.5 17.08
      vertex 23.5 14 18.78
      vertex 23.5 14 17.08
    endloop
  endfacet
  facet normal -1 -0 0
    outer loop
      vertex 23.5 14 18.78
      vertex 23.5 13.5 17.08
      vertex 23.5 13.5 18.78
    endloop
  endfacet
  facet normal 0 1 -0
    outer loop
      vertex 23.5 13.5 17.08
      vertex 18.5 13.5 18.78
      vertex 23.5 13.5 18.78
    endloop
  endfacet
  facet normal 0 1 0
    outer loop
      vertex 18.5 13.5 18.78
      vertex 23.5 13.5 17.08
      vertex 18.5 13.5 17.08
    endloop
  endfacet
  facet normal -1 0 0
    outer loop
      vertex 28 14 17.08
      vertex 28 28 20.08
      vertex 28 28 17.08
    endloop
  endfacet
  facet normal -1 -0 0
    outer loop
      vertex 28 28 20.08
      vertex 28 14 17.08
      vertex 28 14 20.08
    endloop
  endfacet
  facet normal 1 -0 0
    outer loop
      vertex 14 14 20.08
      vertex 14 28 17.08
      vertex 14 28 20.08
    endloop
  endfacet
  facet normal 1 0 0
    outer loop
      vertex 14 28 17.08
      vertex 14 14 20.08
      vertex 14 14 17.08
    endloop
  endfacet
  facet normal 0 -1 0
    outer loop
      vertex -7 28 20.08
      vertex -2.5 28 18.78
      vertex 7 28 20.08
    endloop
  endfacet
  facet normal 0 -1 0
    outer loop
      vertex -7 28 17.08
      vertex -2.5 28 18.78
      vertex -7 28 20.08
    endloop
  endfacet
  facet normal 0 -1 -0
    outer loop
      vertex -2.5 28 18.78
      vertex -7 28 17.08
      vertex -2.5 28 17.08
    endloop
  endfacet
  facet normal 0 -1 0
    outer loop
      vertex 2.5 28 18.78
      vertex 7 28 20.08
      vertex -2.5 28 18.78
    endloop
  endfacet
  facet normal 0 -1 0
    outer loop
      vertex 7 28 17.08
      vertex 2.5 28 18.78
      vertex 2.5 28 17.08
    endloop
  endfacet
  facet normal 0 -1 0
    outer loop
      vertex 2.5 28 18.78
      vertex 7 28 17.08
      vertex 7 28 20.08
    endloop
  endfacet
  facet normal -1 0 0
    outer loop
      vertex 2.5 28 17.08
      vertex 2.5 28.5 18.78
      vertex 2.5 28.5 17.08
    endloop
  endfacet
  facet normal -1 -0 0
    outer loop
      vertex 2.5 28.5 18.78
      vertex 2.5 28 17.08
      vertex 2.5 28 18.78
    endloop
  endfacet
  facet normal 0 0 -1
    outer loop
      vertex -2.5 28 18.78
      vertex 2.5 28.5 18.78
      vertex 2.5 28 18.78
    endloop
  endfacet
  facet normal -0 0 -1
    outer loop
      vertex 2.5 28.5 18.78
      vertex -2.5 28 18.78
      vertex -2.5 28.5 18.78
    endloop
  endfacet
  facet normal 1 -0 0
    outer loop
      vertex -2.5 28 18.78
      vertex -2.5 28.5 17.08
      vertex -2.5 28.5 18.78
    endloop
  endfacet
  facet normal 1 0 0
    outer loop
      vertex -2.5 28.5 17.08
      vertex -2.5 28 18.78
      vertex -2.5 28 17.08
    endloop
  endfacet
  facet normal 0 -1 0
    outer loop
      vertex -2.5 28.5 17.08
      vertex 2.5 28.5 18.78
      vertex -2.5 28.5 18.78
    endloop
  endfacet
  facet normal 0 -1 -0
    outer loop
      vertex 2.5 28.5 18.78
      vertex -2.5 28.5 17.08
      vertex 2.5 28.5 17.08
    endloop
  endfacet
  facet normal 0 1 0
    outer loop
      vertex 7 14 20.08
      vertex 2.5 14 18.78
      vertex -7 14 20.08
    endloop
  endfacet
  facet normal 0 1 -0
    outer loop
      vertex 7 14 17.08
      vertex 2.5 14 18.78
      vertex 7 14 20.08
    endloop
  endfacet
  facet normal 0 1 0
    outer loop
      vertex 2.5 14 18.78
      vertex 7 14 17.08
      vertex 2.5 14 17.08
    endloop
  endfacet
  facet normal 0 1 -0
    outer loop
      vertex -2.5 14 18.78
      vertex -7 14 20.08
      vertex 2.5 14 18.78
    endloop
  endfacet
  facet normal 0 1 0
    outer loop
      vertex -7 14 17.08
      vertex -2.5 14 18.78
      vertex -2.5 14 17.08
    endloop
  endfacet
  facet normal 0 1 0
    outer loop
      vertex -2.5 14 18.78
      vertex -7 14 17.08
      vertex -7 14 20.08
    endloop
  endfacet
  facet normal 1 -0 0
    outer loop
      vertex -2.5 13.5 18.78
      vertex -2.5 14 17.08
      vertex -2.5 14 18.78
    endloop
  endfacet
  facet normal 1 0 0
    outer loop
      vertex -2.5 14 17.08
      vertex -2.5 13.5 18.78
      vertex -2.5 13.5 17.08
    endloop
  endfacet
  facet normal 0 0 -1
    outer loop
      vertex -2.5 13.5 18.78
      vertex 2.5 14 18.78
      vertex 2.5 13.5 18.78
    endloop
  endfacet
  facet normal -0 0 -1
    outer loop
      vertex 2.5 14 18.78
      vertex -2.5 13.5 18.78
      vertex -2.5 14 18.78
    endloop
  endfacet
  facet normal -1 0 0
    outer loop
      vertex 2.5 13.5 17.08
      vertex 2.5 14 18.78
      vertex 2.5 14 17.08
    endloop
  endfacet
  facet normal -1 -0 0
    outer loop
      vertex 2.5 14 18.78
      vertex 2.5 13.5 17.08
      vertex 2.5 13.5 18.78
    endloop
  endfacet
  facet normal 0 1 -0
    outer loop
      vertex 2.5 13.5 17.08
      vertex -2.5 13.5 18.78
      vertex 2.5 13.5 18.78
    endloop
  endfacet
  facet normal 0 1 0
    outer loop
      vertex -2.5 13.5 18.78
      vertex 2.5 13.5 17.08
      vertex -2.5 13.5 17.08
    endloop
  endfacet
  facet normal -1 0 0
    outer loop
      vertex 7 14 17.08
      vertex 7 28 20.08
      vertex 7 28 17.08
    endloop
  endfacet
  facet normal -1 -0 0
    outer loop
      vertex 7 28 20.08
      vertex 7 14 17.08
      vertex 7 14 20.08
    endloop
  endfacet
  facet normal 1 -0 0
    outer loop
      vertex -7 14 20.08
      vertex -7 28 17.08
      vertex -7 28 20.08
    endloop
  endfacet
  facet normal 1 0 0
    outer loop
      vertex -7 28 17.08
      vertex -7 14 20.08
      vertex -7 14 17.08
    endloop
  endfacet
  facet normal 0 -1 0
    outer loop
      vertex -28 28 20.08
      vertex -23.5 28 18.78
      vertex -14 28 20.08
    endloop
  endfacet
  facet normal 0 -1 0
    outer loop
      vertex -28 28 17.08
      vertex -23.5 28 18.78
      vertex -28 28 20.08
    endloop
  endfacet
  facet normal 0 -1 -0
    outer loop
      vertex -23.5 28 18.78
      vertex -28 28 17.08
      vertex -23.5 28 17.08
    endloop
  endfacet
  facet normal 0 -1 0
    outer loop
      vertex -18.5 28 18.78
      vertex -14 28 20.08
      vertex -23.5 28 18.78
    endloop
  endfacet
  facet normal 0 -1 0
    outer loop
      vertex -14 28 17.08
      vertex -18.5 28 18.78
      vertex -18.5 28 17.08
    endloop
  endfacet
  facet normal 0 -1 0
    outer loop
      vertex -18.5 28 18.78
      vertex -14 28 17.08
      vertex -14 28 20.08
    endloop
  endfacet
  facet normal -1 0 0
    outer loop
      vertex -18.5 28 17.08
      vertex -18.5 28.5 18.78
      vertex -18.5 28.5 17.08
    endloop
  endfacet
  facet normal -1 -0 0
    outer loop
      vertex -18.5 28.5 18.78
      vertex -18.5 28 17.08
      vertex -18.5 28 18.78
    endloop
  endfacet
  facet normal 0 0 -1
    outer loop
      vertex -23.5 28 18.78
      vertex -18.5 28.5 18.78
      vertex -18.5 28 18.78
    endloop
  endfacet
  facet normal -0 0 -1
    outer loop
      vertex -18.5 28.5 18.78
      vertex -23.5 28 18.78
      vertex -23.5 28.5 18.78
    endloop
  endfacet
  facet normal 1 -0 0
    outer loop
      vertex -23.5 28 18.78
      vertex -23.5 28.5 17.08
      vertex -23.5 28.5 18.78
    endloop
  endfacet
  facet normal 1 0 0
    outer loop
      vertex -23.5 28.5 17.08
      vertex -23.5 28 18.78
      vertex -23.5 28 17.08
    endloop
  endfacet
  facet normal 0 -1 0
    outer loop
      vertex -23.5 28.5 17.08
      vertex -18.5 28.5 18.78
      vertex -23.5 28.5 18.78
    endloop
  endfacet
  facet normal 0 -1 -0
    outer loop
      vertex -18.5 28.5 18.78
      vertex -23.5 28.5 17.08
      vertex -18.5 28.5 17.08
    endloop
  endfacet
  facet normal 0 1 0
    outer loop
      vertex -14 14 20.08
      vertex -18.5 14 18.78
      vertex -28 14 20.08
    endloop
  endfacet
  facet normal 0 1 -0
    outer loop
      vertex -14 14 17.08
      vertex -18.5 14 18.78
      vertex -14 14 20.08
    endloop
  endfacet
  facet normal 0 1 0
    outer loop
      vertex -18.5 14 18.78
      vertex -14 14 17.08
      vertex -18.5 14 17.08
    endloop
  endfacet
  facet normal 0 1 -0
    outer loop
      vertex -23.5 14 18.78
      vertex -28 14 20.08
      vertex -18.5 14 18.78
    endloop
  endfacet
  facet normal 0 1 0
    outer loop
      vertex -28 14 17.08
      vertex -23.5 14 18.78
      vertex -23.5 14 17.08
    endloop
  endfacet
  facet normal 0 1 0
    outer loop
      vertex -23.5 14 18.78
      vertex -28 14 17.08
      vertex -28 14 20.08
    endloop
  endfacet
  facet normal 1 -0 0
    outer loop
      vertex -23.5 13.5 18.78
      vertex -23.5 14 17.08
      vertex -23.5 14 18.78
    endloop
  endfacet
  facet normal 1 0 0
    outer loop
      vertex -23.5 14 17.08
      vertex -23.5 13.5 18.78
      vertex -23.5 13.5 17.08
    endloop
  endfacet
  facet normal 0 0 -1
    outer loop
      vertex -23.5 13.5 18.78
      vertex -18.5 14 18.78
      vertex -18.5 13.5 18.78
    endloop
  endfacet
  facet normal -0 0 -1
    outer loop
      vertex -18.5 14 18.78
      vertex -23.5 13.5 18.78
      vertex -23.5 14 18.78
    endloop
  endfacet
  facet normal -1 0 0
    outer loop
      vertex -18.5 13.5 17.08
      vertex -18.5 14 18.78
      vertex -18.5 14 17.08
    endloop
  endfacet
  facet normal -1 -0 0
    outer loop
      vertex -18.5 14 18.78
      vertex -18.5 13.5 17.08
      vertex -18.5 13.5 18.78
    endloop
  endfacet
  facet normal 0 1 -0
    outer loop
      vertex -18.5 13.5 17.08
      vertex -23.5 13.5 18.78
      vertex -18.5 13.5 18.78
    endloop
  endfacet
  facet normal 0 1 0
    outer loop
      vertex -23.5 13.5 18.78
      vertex -18.5 13.5 17.08
      vertex -23.5 13.5 17.08
    endloop
  endfacet
  facet normal -1 0 0
    outer loop
      vertex -14 14 17.08
      vertex -14 28 20.08
      vertex -14 28 17.08
    endloop
  endfacet
  facet normal -1 -0 0
    outer loop
      vertex -14 28 20.08
      vertex -14 14 17.08
      vertex -14 14 20.08
    endloop
  endfacet
  facet normal 1 -0 0
    outer loop
      vertex -28 14 20.08
      vertex -28 28 17.08
      vertex -28 28 20.08
    endloop
  endfacet
  facet normal 1 0 0
    outer loop
      vertex -28 28 17.08
      vertex -28 14 20.08
      vertex -28 14 17.08
    endloop
  endfacet
endsolid OpenSCAD_Model
